<?xml version="1.0" encoding="UTF-8"?>
<svg version="1.1" xmlns="http://www.w3.org/2000/svg" width="512" height="512">
<path d="M0 0 C0.84143555 0.00215515 1.68287109 0.0043103 2.54980469 0.00653076 C14.71658508 0.05657006 26.44379008 0.41930379 38.3125 3.3125 C39.56063477 3.59456299 39.56063477 3.59456299 40.83398438 3.88232422 C87.3668168 14.53268299 127.37276421 43.40444995 153.3125 83.3125 C164.73346957 101.59038564 172.22406903 121.42228298 177.3125 142.3125 C177.49184082 143.0250293 177.67118164 143.73755859 177.85595703 144.47167969 C183.25468681 166.99944783 182.95975834 195.87568383 177.3125 218.3125 C177.01448486 219.53598145 177.01448486 219.53598145 176.71044922 220.78417969 C164.70031761 268.95065507 135.86725051 310.07457875 93.12109375 335.88671875 C75.97363724 345.91106219 57.57690637 352.62841145 38.3125 357.3125 C37.59465332 357.49184082 36.87680664 357.67118164 36.13720703 357.85595703 C13.80427816 363.15877697 -14.44537012 362.8580848 -36.6875 357.3125 C-37.92113281 357.01448486 -37.92113281 357.01448486 -39.1796875 356.71044922 C-51.57004726 353.64273218 -63.2122483 349.34602423 -74.82250977 344.06518555 C-79.62912127 342.12530032 -82.43958608 342.51685462 -87.52880859 343.85131836 C-88.20916168 344.0267366 -88.88951477 344.20215485 -89.59048462 344.38288879 C-91.06691955 344.76461938 -92.54226313 345.15059051 -94.01661301 345.54029655 C-96.36225474 346.15928861 -98.71094681 346.7650925 -101.0609436 347.36732483 C-107.74199569 349.08178972 -114.41726932 350.81812471 -121.08935547 352.56713867 C-125.17524219 353.63722938 -129.26518555 354.69050624 -133.35786819 355.73428535 C-134.9053985 356.13253966 -136.45132821 356.53707559 -137.99543381 356.94840813 C-162.16619652 363.38452045 -162.16619652 363.38452045 -171.8125 357.8125 C-175.91571068 354.51923407 -178.30552048 351.3941742 -179.6875 346.3125 C-180.69011455 336.73773228 -178.7556595 327.95117227 -176.29284286 318.78729439 C-175.66483323 316.44858902 -175.05741727 314.10531698 -174.45462036 311.75999451 C-172.95674595 305.94852162 -171.42577909 300.14588784 -169.89428711 294.34320068 C-168.59352608 289.41013706 -167.30624303 284.47394308 -166.03702164 279.53266716 C-165.43974093 277.23016201 -164.82296627 274.93347152 -164.20529175 272.6363678 C-163.84013683 271.22340984 -163.47591989 269.81020903 -163.11279297 268.39672852 C-162.78858368 267.17019058 -162.46437439 265.94365265 -162.13034058 264.6799469 C-161.63198524 260.89035482 -162.20898055 258.79710694 -163.6875 255.3125 C-163.97858643 254.57612305 -164.26967285 253.83974609 -164.56958008 253.08105469 C-164.86243896 252.38915039 -165.15529785 251.69724609 -165.45703125 250.984375 C-168.85250576 242.83024895 -172.10112544 234.69685972 -174.5 226.1875 C-174.68216064 225.55811523 -174.86432129 224.92873047 -175.05200195 224.28027344 C-178.94761705 209.76009042 -180.21115737 195.34342193 -180.0625 180.375 C-180.05817963 179.5445517 -180.05385925 178.71410339 -180.04940796 177.85848999 C-179.97576929 165.77259824 -179.49644271 154.11118523 -176.6875 142.3125 C-176.45401855 141.21808594 -176.45401855 141.21808594 -176.21582031 140.1015625 C-166.26590036 93.549442 -136.28898659 53.07970883 -96.6875 27.3125 C-67.3304851 8.91043959 -34.5454713 -0.15917611 0 0 Z M-95.6875 79.3125 C-96.63109375 80.18132812 -97.5746875 81.05015625 -98.546875 81.9453125 C-122.87935385 104.8011711 -137.93045198 138.80369553 -139.06640625 172.08984375 C-139.44964852 186.84008272 -138.93017758 201.08767609 -134.6875 215.3125 C-134.34847656 216.53453125 -134.00945312 217.7565625 -133.66015625 219.015625 C-131.89057519 224.83446093 -129.75116938 230.2606803 -127.14453125 235.74609375 C-126.69029785 236.70668701 -126.23606445 237.66728027 -125.76806641 238.65698242 C-124.86338716 240.54387127 -123.9383166 242.42116703 -122.98974609 244.28637695 C-122.56387207 245.16640381 -122.13799805 246.04643066 -121.69921875 246.953125 C-121.31209717 247.72172852 -120.92497559 248.49033203 -120.52612305 249.28222656 C-118.23116749 257.57479961 -119.90478657 265.74590007 -122.09375 273.87109375 C-122.33790649 274.82266861 -122.58206299 275.77424347 -122.83361816 276.75465393 C-123.60585476 279.75647848 -124.39562758 282.7533016 -125.1875 285.75 C-125.97636271 288.77236938 -126.76141489 291.79565045 -127.54138184 294.82032776 C-128.02520966 296.69272585 -128.51464774 298.56368552 -129.01037598 300.43296814 C-129.23060425 301.27807449 -129.45083252 302.12318085 -129.67773438 302.99389648 C-129.87314819 303.73349106 -130.06856201 304.47308563 -130.26989746 305.23509216 C-130.81888566 307.61293088 -130.81888566 307.61293088 -130.6875 311.3125 C-124.79029972 310.69812957 -119.26522865 309.55663769 -113.54296875 308.02734375 C-111.79634891 307.57438769 -110.04959997 307.12192922 -108.30273438 306.66992188 C-105.58951107 305.96228424 -102.87752458 305.25067138 -100.16772461 304.5300293 C-74.98556292 297.85614973 -74.98556292 297.85614973 -61.125 304.9375 C-26.7454221 321.47344063 9.94358948 325.00996271 46.37011719 312.296875 C65.39601681 305.32781678 81.6781257 295.34861371 96.3125 281.3125 C97.25609375 280.44367188 98.1996875 279.57484375 99.171875 278.6796875 C123.5630343 255.76870948 138.39208449 221.91942702 139.69140625 188.60546875 C140.68981352 150.69204285 130.00684026 114.85028091 103.6953125 86.796875 C102.90898437 85.97703125 102.12265625 85.1571875 101.3125 84.3125 C100.00925781 82.89710937 100.00925781 82.89710937 98.6796875 81.453125 C73.06211037 54.18050468 37.80222757 42.52973428 1.3125 40.3125 C-35.03308797 40.3125 -69.53989234 54.2338197 -95.6875 79.3125 Z " fill="#AEB9FA" transform="translate(179.6875,-0.3125)"/>
<path d="M0 0 C5.0964706 3.92727203 9.9710812 8.08587031 14.77294922 12.36621094 C15.55025391 13.0584375 16.32755859 13.75066406 17.12841797 14.46386719 C44.88072386 40.69965363 61.85135282 81.73246321 62.94995117 119.71069336 C62.97599631 121.21426864 62.99621048 122.71795386 63.01123047 124.22167969 C63.02102432 125.03754044 63.03081818 125.85340118 63.04090881 126.69398499 C63.20538563 143.93048 63.28702008 160.60162509 58.77294922 177.36621094 C58.45148926 178.62304688 58.45148926 178.62304688 58.12353516 179.90527344 C56.15026269 187.51113296 54.10039591 194.98475039 50.46826172 201.98339844 C49.89156738 203.12180176 49.89156738 203.12180176 49.30322266 204.28320312 C48.14794922 206.49121094 48.14794922 206.49121094 46.96142578 208.40234375 C43.13769584 215.65127403 46.01995076 223.09800106 48.01226807 230.52655029 C48.84240593 233.62549631 49.63775197 236.73213735 50.42871094 239.84130859 C51.64747327 244.61923183 52.87110715 249.39584664 54.10107422 254.17089844 C54.57383789 256.0073291 54.57383789 256.0073291 55.05615234 257.88085938 C55.70287168 260.37954772 56.3546005 262.87694463 57.01123047 265.37304688 C57.97343275 269.03880755 58.91392136 272.70960276 59.85107422 276.38183594 C60.14475891 277.4780426 60.4384436 278.57424927 60.74102783 279.70367432 C63.07685137 288.98133666 65.35956527 299.86823096 60.21044922 308.49121094 C57.27233374 312.13501697 54.39161781 315.14861671 49.77294922 316.36621094 C39.6970384 317.35760329 30.78786854 315.57273405 21.14201355 312.9715538 C18.80767526 312.34249257 16.46848542 311.73550191 14.1270752 311.1333313 C9.17071286 309.85468471 4.22145636 308.54987922 -0.72705078 307.24121094 C-6.49578973 305.71614202 -12.26700734 304.20220941 -18.04582214 302.71573257 C-20.3439562 302.11862112 -22.63619561 301.50182755 -24.92883301 300.88400269 C-26.33853417 300.51886353 -27.74847481 300.1546473 -29.15869141 299.79150391 C-30.38221313 299.46729462 -31.60573486 299.14308533 -32.86633301 298.80905151 C-36.65243495 298.31015822 -38.74528273 298.88943917 -42.22705078 300.36621094 C-42.96342773 300.65729736 -43.69980469 300.94838379 -44.45849609 301.24829102 C-45.49635254 301.68757935 -45.49635254 301.68757935 -46.55517578 302.13574219 C-70.14159913 311.95840906 -93.06883874 316.9898568 -118.66455078 316.74121094 C-119.51456665 316.73689056 -120.36458252 316.73257019 -121.24035645 316.7281189 C-133.76931907 316.65358724 -145.97865019 316.22380259 -158.22705078 313.36621094 C-159.01337891 313.18928711 -159.79970703 313.01236328 -160.60986328 312.83007812 C-203.80231788 302.90609748 -238.7645647 278.1612588 -262.59814453 240.67871094 C-266.98057191 233.56167173 -270.49045591 227.452615 -268.73486328 218.99511719 C-266.9345234 212.83552737 -264.33571437 208.39800724 -258.72705078 205.05371094 C-252.45468005 202.16419184 -245.43079085 202.39904412 -238.91455078 204.36621094 C-232.39107722 209.22088894 -228.33675918 215.64596752 -224.12158203 222.48730469 C-220.87334745 227.42328178 -217.02951923 231.85385466 -213.22705078 236.36621094 C-212.54900391 237.22988281 -211.87095703 238.09355469 -211.17236328 238.98339844 C-193.06759076 261.15992703 -161.29905929 271.79315203 -133.82910156 274.61230469 C-105.97221745 277.15234451 -79.4459308 272.03938566 -54.45751953 259.51464844 C-53.37083984 258.97066406 -52.28416016 258.42667969 -51.16455078 257.86621094 C-49.81683594 257.13917969 -49.81683594 257.13917969 -48.44189453 256.39746094 C-39.87418274 253.64913054 -31.10867837 255.75640531 -22.65283203 257.99121094 C-21.07806343 258.39073975 -21.07806343 258.39073975 -19.47148132 258.79833984 C-16.15756418 259.6420683 -12.84864588 260.50378662 -9.53955078 261.36621094 C-7.27748835 261.94553739 -5.01512079 262.52367383 -2.75244141 263.10058594 C2.75962232 264.50873092 8.26771052 265.93162856 13.77294922 267.36621094 C13.6226123 266.78929001 13.47227539 266.21236908 13.31738281 265.6179657 C11.74424227 259.57024061 10.18989557 253.51790075 8.64599609 247.46264648 C8.06869686 245.20849961 7.48674117 242.95553962 6.89990234 240.70385742 C6.05340002 237.45245352 5.22417152 234.19703824 4.39794922 230.94042969 C4.13546387 229.94726242 3.87297852 228.95409515 3.60253906 227.93083191 C1.56462673 219.7862302 -0.15309322 210.82499239 3.78466797 203.00683594 C4.21054199 202.12688965 4.63641602 201.24694336 5.07519531 200.34033203 C5.5323291 199.44137207 5.98946289 198.54241211 6.46044922 197.61621094 C7.38876455 195.67856011 8.31195247 193.73844437 9.22998047 191.79589844 C9.67293457 190.86358398 10.11588867 189.93126953 10.57226562 188.97070312 C13.20362862 183.26281772 15.11672975 177.4306191 16.77294922 171.36621094 C16.96614746 170.6967041 17.1593457 170.02719727 17.35839844 169.33740234 C26.39854351 137.00689168 22.09412524 97.84817054 5.89746094 68.49023438 C2.3595449 62.39084679 -1.78543668 56.83530226 -6.22705078 51.36621094 C-6.80068359 50.63917969 -7.37431641 49.91214844 -7.96533203 49.16308594 C-15.79497725 39.67034185 -26.28715868 32.36397473 -36.64111328 25.84667969 C-42.50012544 22.13335927 -47.96200045 18.16136193 -50.22705078 11.36621094 C-50.80565068 4.96367113 -51.0156242 -1.20061347 -47.69580078 -6.87988281 C-32.85770023 -24.5987848 -14.13586256 -10.64538296 0 0 Z " fill="#C591F8" transform="translate(449.22705078125,195.6337890625)"/>
<path d="M0 0 C1.29354401 -0.01022186 2.58708801 -0.02044373 3.91983032 -0.03097534 C7.45308131 -0.05765473 10.98590312 -0.05892415 14.51923513 -0.05384874 C17.47631333 -0.05170221 20.43330595 -0.06149422 23.39036572 -0.07105958 C30.37098661 -0.09321553 37.35139224 -0.09414454 44.33203125 -0.08203125 C51.51627093 -0.06995568 58.69972683 -0.09456974 65.88383281 -0.13717139 C72.06755346 -0.17248266 78.25102551 -0.18439372 84.43484318 -0.1778959 C88.12127777 -0.17428199 91.80715331 -0.17942188 95.49349594 -0.20732498 C99.60815495 -0.23730733 103.72123435 -0.21847494 107.8359375 -0.1953125 C109.04558167 -0.21059998 110.25522583 -0.22588745 111.50152588 -0.24163818 C119.24879981 -0.14543693 124.23064097 1.31355874 130.04736328 6.54931641 C134.63193827 11.91662371 134.77366693 17.14068081 134.55908203 24.09619141 C133.79135248 29.27690072 131.86929246 32.97420457 128.04736328 36.54931641 C121.63750197 41.29058066 115.89204504 41.13046494 108.09472656 41.09863281 C106.80118256 41.10885468 105.50763855 41.11907654 104.17489624 41.12960815 C100.64164525 41.15628755 97.10882344 41.15755696 93.57549143 41.15248156 C90.61841323 41.15033502 87.66142062 41.16012704 84.70436084 41.1696924 C77.72373995 41.19184835 70.74333432 41.19277735 63.76269531 41.18066406 C56.57845563 41.16858849 49.39499974 41.19320255 42.21089375 41.2358042 C36.02717311 41.27111547 29.84370105 41.28302653 23.65988338 41.27652872 C19.97344879 41.2729148 16.28757325 41.27805469 12.60123062 41.30595779 C8.48657161 41.33594014 4.37349221 41.31710775 0.25878906 41.29394531 C-0.9508551 41.30923279 -2.16049927 41.32452026 -3.40679932 41.340271 C-11.15407325 41.24406974 -16.13591441 39.78507407 -21.95263672 34.54931641 C-26.53721171 29.1820091 -26.67894037 23.957952 -26.46435547 17.00244141 C-25.69662592 11.82173209 -23.7745659 8.12442824 -19.95263672 4.54931641 C-13.54277541 -0.19194785 -7.79731847 -0.03183213 0 0 Z " fill="#AFB7FA" transform="translate(125.95263671875,199.45068359375)"/>
<path d="M0 0 C1.29354401 -0.01022186 2.58708801 -0.02044373 3.91983032 -0.03097534 C7.45308131 -0.05765473 10.98590312 -0.05892415 14.51923513 -0.05384874 C17.47631333 -0.05170221 20.43330595 -0.06149422 23.39036572 -0.07105958 C30.37098661 -0.09321553 37.35139224 -0.09414454 44.33203125 -0.08203125 C51.51627093 -0.06995568 58.69972683 -0.09456974 65.88383281 -0.13717139 C72.06755346 -0.17248266 78.25102551 -0.18439372 84.43484318 -0.1778959 C88.12127777 -0.17428199 91.80715331 -0.17942188 95.49349594 -0.20732498 C99.60815495 -0.23730733 103.72123435 -0.21847494 107.8359375 -0.1953125 C109.04558167 -0.21059998 110.25522583 -0.22588745 111.50152588 -0.24163818 C119.24879981 -0.14543693 124.23064097 1.31355874 130.04736328 6.54931641 C134.63193827 11.91662371 134.77366693 17.14068081 134.55908203 24.09619141 C133.79135248 29.27690072 131.86929246 32.97420457 128.04736328 36.54931641 C121.63750197 41.29058066 115.89204504 41.13046494 108.09472656 41.09863281 C106.80118256 41.10885468 105.50763855 41.11907654 104.17489624 41.12960815 C100.64164525 41.15628755 97.10882344 41.15755696 93.57549143 41.15248156 C90.61841323 41.15033502 87.66142062 41.16012704 84.70436084 41.1696924 C77.72373995 41.19184835 70.74333432 41.19277735 63.76269531 41.18066406 C56.57845563 41.16858849 49.39499974 41.19320255 42.21089375 41.2358042 C36.02717311 41.27111547 29.84370105 41.28302653 23.65988338 41.27652872 C19.97344879 41.2729148 16.28757325 41.27805469 12.60123062 41.30595779 C8.48657161 41.33594014 4.37349221 41.31710775 0.25878906 41.29394531 C-0.9508551 41.30923279 -2.16049927 41.32452026 -3.40679932 41.340271 C-11.15407325 41.24406974 -16.13591441 39.78507407 -21.95263672 34.54931641 C-26.53721171 29.1820091 -26.67894037 23.957952 -26.46435547 17.00244141 C-25.69662592 11.82173209 -23.7745659 8.12442824 -19.95263672 4.54931641 C-13.54277541 -0.19194785 -7.79731847 -0.03183213 0 0 Z " fill="#AFB7FA" transform="translate(125.95263671875,119.45068359375)"/>
</svg>
